<?xml version="1.0" standalone="no"?>
<!DOCTYPE svg PUBLIC "-//W3C//DTD SVG 20010904//EN"
 "http://www.w3.org/TR/2001/REC-SVG-20010904/DTD/svg10.dtd">
<svg version="1.0" xmlns="http://www.w3.org/2000/svg"
 width="512.000000pt" height="512.000000pt" viewBox="0 0 512.000000 512.000000"
 preserveAspectRatio="xMidYMid meet">

<g transform="translate(0.000000,512.000000) scale(0.100000,-0.100000)"
fill="#000000" stroke="none">
<path d="M1367 5106 c-64 -24 -115 -63 -144 -113 -25 -43 -29 -60 -33 -158
l-5 -110 -330 -5 c-322 -5 -331 -6 -374 -28 -64 -35 -127 -104 -150 -168 -21
-54 -21 -70 -21 -1039 l0 -984 26 -20 c37 -29 85 -27 115 5 l24 26 3 504 3
504 2079 0 2080 0 0 -1227 c0 -1214 0 -1228 -20 -1261 -12 -19 -38 -41 -63
-52 -38 -18 -67 -20 -309 -20 -266 0 -267 0 -294 -24 -39 -33 -39 -89 0 -123
l29 -24 296 3 296 3 57 28 c67 33 121 90 154 162 l24 52 -2 1734 -3 1734 -23
43 c-13 24 -40 60 -62 82 -22 22 -58 49 -82 62 -42 22 -53 23 -373 28 l-330 5
-5 105 c-6 117 -23 161 -82 216 -61 58 -92 68 -220 72 -134 5 -184 -7 -248
-58 -62 -49 -91 -120 -97 -240 l-6 -100 -721 2 -721 3 -5 105 c-6 117 -23 161
-82 216 -61 59 -92 68 -223 71 -85 2 -131 -1 -158 -11z m-185 -655 c4 -86 9
-106 35 -152 35 -63 96 -114 155 -130 23 -6 92 -9 157 -7 130 3 169 16 229 76
56 57 72 103 72 215 l0 97 724 0 723 0 5 -98 c4 -84 9 -106 34 -152 33 -62 96
-114 156 -131 23 -6 92 -9 157 -7 129 3 164 15 224 73 56 55 71 97 75 213 l4
102 301 0 c284 0 304 -1 335 -20 18 -11 41 -34 52 -52 19 -31 20 -51 20 -410
l0 -378 -2080 0 -2080 0 0 378 c0 359 1 379 20 410 11 18 34 41 52 52 31 19
51 20 329 20 l296 0 5 -99z"/>
<path d="M2344 2605 c-603 -106 -1056 -609 -1091 -1211 -6 -111 -6 -112 20
-138 35 -35 88 -36 122 -1 21 20 25 34 25 79 0 81 18 198 46 295 141 485 588
821 1095 821 340 0 675 -159 882 -420 l60 -75 -199 -3 c-187 -2 -199 -4 -221
-24 -15 -14 -23 -33 -23 -54 0 -90 13 -94 340 -94 283 0 318 5 334 45 3 9 6
147 6 306 l0 290 -25 24 c-31 32 -75 32 -112 1 -28 -24 -28 -25 -31 -158 l-3
-133 -92 90 c-179 175 -374 282 -631 346 -108 27 -384 35 -502 14z"/>
<path d="M332 2227 c-20 -21 -22 -34 -22 -131 0 -59 4 -116 10 -126 5 -10 25
-24 44 -30 28 -9 40 -8 65 4 40 21 54 71 50 174 -4 68 -8 84 -28 106 -32 34
-88 36 -119 3z"/>
<path d="M334 1705 l-25 -25 3 -333 c3 -324 4 -333 26 -375 35 -66 88 -119
150 -149 l57 -28 296 -3 296 -3 29 24 c37 32 39 85 4 122 l-23 25 -271 0
c-244 0 -275 2 -313 19 -78 36 -77 35 -83 389 l-5 314 -28 24 c-37 32 -81 31
-113 -1z"/>
<path d="M3725 1365 c-20 -19 -25 -34 -25 -77 0 -87 -28 -243 -60 -338 -131
-394 -451 -676 -860 -760 -147 -31 -370 -24 -509 14 -244 68 -456 207 -604
395 l-47 59 196 4 196 3 24 28 c31 36 31 78 0 114 l-24 28 -291 0 -291 0 -27
-28 -28 -27 0 -291 0 -291 28 -24 c36 -31 78 -31 114 0 28 24 28 26 32 156 l3
131 97 -93 c251 -244 557 -368 907 -368 362 0 675 130 929 384 201 202 329
453 369 729 24 157 22 218 -9 251 -32 35 -86 36 -120 1z"/>
</g>
</svg>
