<svg width="27" height="26" viewBox="0 0 27 26" fill="none" xmlns="http://www.w3.org/2000/svg">
<path d="M27 13C27 5.837 20.9385 0 13.5 0C6.0615 0 0 5.837 0 13C0 16.77 1.6875 20.163 4.3605 22.542C4.3605 22.555 4.3605 22.555 4.347 22.568C4.482 22.698 4.644 22.802 4.779 22.919C4.86 22.984 4.9275 23.049 5.0085 23.101C5.2515 23.296 5.5215 23.478 5.778 23.66C5.8725 23.725 5.9535 23.777 6.048 23.842C6.3045 24.011 6.5745 24.167 6.858 24.31C6.9525 24.362 7.0605 24.427 7.155 24.479C7.425 24.622 7.7085 24.752 8.0055 24.869C8.1135 24.921 8.2215 24.973 8.3295 25.012C8.6265 25.129 8.9235 25.233 9.2205 25.324C9.3285 25.363 9.4365 25.402 9.5445 25.428C9.8685 25.519 10.1925 25.597 10.5165 25.675C10.611 25.701 10.7055 25.727 10.8135 25.74C11.1915 25.818 11.5695 25.87 11.961 25.909C12.015 25.909 12.069 25.922 12.123 25.935C12.582 25.974 13.041 26 13.5 26C13.959 26 14.418 25.974 14.8635 25.935C14.9175 25.935 14.9715 25.922 15.0255 25.909C15.417 25.87 15.795 25.818 16.173 25.74C16.2675 25.727 16.362 25.688 16.47 25.675C16.794 25.597 17.1315 25.532 17.442 25.428C17.55 25.389 17.658 25.35 17.766 25.324C18.063 25.22 18.3735 25.129 18.657 25.012C18.765 24.973 18.873 24.921 18.981 24.869C19.2645 24.752 19.548 24.622 19.8315 24.479C19.9395 24.427 20.034 24.362 20.1285 24.31C20.3985 24.154 20.6685 24.011 20.9385 23.842C21.033 23.79 21.114 23.725 21.2085 23.66C21.4785 23.478 21.735 23.296 21.978 23.101C22.059 23.036 22.1265 22.971 22.2075 22.919C22.356 22.802 22.5045 22.685 22.6395 22.568C22.6395 22.555 22.6395 22.555 22.626 22.542C25.3125 20.163 27 16.77 27 13ZM20.169 19.461C16.5105 17.095 10.5165 17.095 6.831 19.461C6.237 19.838 5.751 20.28 5.346 20.761C3.294 18.759 2.025 16.016 2.025 13C2.025 6.903 7.1685 1.95 13.5 1.95C19.8315 1.95 24.975 6.903 24.975 13C24.975 16.016 23.706 18.759 21.654 20.761C21.2625 20.28 20.763 19.838 20.169 19.461Z" fill="#3B3B3B"/>
<path d="M13.5 6.40918C10.7055 6.40918 8.4375 8.59318 8.4375 11.2842C8.4375 13.9232 10.584 16.0682 13.4325 16.1462H13.554H13.6485H13.6755C16.4025 16.0552 18.549 13.9232 18.5625 11.2842C18.5625 8.59318 16.2945 6.40918 13.5 6.40918Z" fill="#3B3B3B"/>
</svg>
