<svg width="91" height="68" viewBox="0 0 91 68" fill="none" xmlns="http://www.w3.org/2000/svg">
<path d="M3.883 59.9284C3.78038 59.9284 3.68197 59.8876 3.60941 59.8151C3.53686 59.7425 3.49609 59.6441 3.49609 59.5415V10.5134C3.49609 10.4108 3.53686 10.3123 3.60941 10.2398C3.68197 10.1672 3.78038 10.1265 3.883 10.1265C3.98561 10.1265 4.08402 10.1672 4.15658 10.2398C4.22913 10.3123 4.2699 10.4108 4.2699 10.5134V59.5338C4.27093 59.5852 4.26168 59.6364 4.2427 59.6842C4.22372 59.732 4.19538 59.7756 4.15935 59.8124C4.12332 59.8491 4.08032 59.8783 4.03287 59.8982C3.98541 59.9182 3.93446 59.9284 3.883 59.9284Z" fill="#DFEAEF"/>
<path d="M24.3635 59.9284C24.2609 59.9284 24.1624 59.8876 24.0899 59.8151C24.0173 59.7425 23.9766 59.6441 23.9766 59.5415V10.5134C23.9766 10.4108 24.0173 10.3123 24.0899 10.2398C24.1624 10.1672 24.2609 10.1265 24.3635 10.1265C24.4661 10.1265 24.5645 10.1672 24.637 10.2398C24.7096 10.3123 24.7504 10.4108 24.7504 10.5134V59.5338C24.7514 59.5852 24.7421 59.6364 24.7232 59.6842C24.7042 59.732 24.6758 59.7756 24.6398 59.8124C24.6038 59.8491 24.5608 59.8783 24.5133 59.8982C24.4659 59.9182 24.4149 59.9284 24.3635 59.9284Z" fill="#DFEAEF"/>
<path d="M44.8439 59.9284C44.7413 59.9284 44.6429 59.8876 44.5704 59.8151C44.4978 59.7425 44.457 59.6441 44.457 59.5415V10.5134C44.457 10.4108 44.4978 10.3123 44.5704 10.2398C44.6429 10.1672 44.7413 10.1265 44.8439 10.1265C44.9465 10.1265 45.045 10.1672 45.1175 10.2398C45.1901 10.3123 45.2308 10.4108 45.2308 10.5134V59.5338C45.2319 59.5852 45.2226 59.6364 45.2036 59.6842C45.1847 59.732 45.1563 59.7756 45.1203 59.8124C45.0843 59.8491 45.0413 59.8783 44.9938 59.8982C44.9463 59.9182 44.8954 59.9284 44.8439 59.9284Z" fill="#DFEAEF"/>
<path d="M65.3224 59.9284C65.2198 59.9284 65.1214 59.8876 65.0489 59.8151C64.9763 59.7425 64.9355 59.6441 64.9355 59.5415V10.5134C64.9355 10.4108 64.9763 10.3123 65.0489 10.2398C65.1214 10.1672 65.2198 10.1265 65.3224 10.1265C65.4251 10.1265 65.5235 10.1672 65.596 10.2398C65.6686 10.3123 65.7093 10.4108 65.7093 10.5134V59.5338C65.7104 59.5852 65.7011 59.6364 65.6822 59.6842C65.6632 59.732 65.6348 59.7756 65.5988 59.8124C65.5628 59.8491 65.5198 59.8783 65.4723 59.8982C65.4249 59.9182 65.3739 59.9284 65.3224 59.9284Z" fill="#DFEAEF"/>
<path d="M85.8068 59.9284C85.7042 59.9284 85.6058 59.8876 85.5332 59.8151C85.4607 59.7425 85.4199 59.6441 85.4199 59.5415V10.5134C85.4199 10.4108 85.4607 10.3123 85.5332 10.2398C85.6058 10.1672 85.7042 10.1265 85.8068 10.1265C85.9094 10.1265 86.0079 10.1672 86.0804 10.2398C86.153 10.3123 86.1937 10.4108 86.1937 10.5134V59.5338C86.1948 59.5852 86.1855 59.6364 86.1665 59.6842C86.1475 59.732 86.1192 59.7756 86.0832 59.8124C86.0471 59.8491 86.0041 59.8783 85.9567 59.8982C85.9092 59.9182 85.8583 59.9284 85.8068 59.9284Z" fill="#DFEAEF"/>
<path d="M90.3686 59.9281H0.386901C0.284289 59.9281 0.185879 59.8873 0.11332 59.8148C0.0407624 59.7422 0 59.6438 0 59.5412C0 59.4386 0.0407624 59.3402 0.11332 59.2676C0.185879 59.1951 0.284289 59.1543 0.386901 59.1543H90.3686C90.4712 59.1543 90.5696 59.1951 90.6421 59.2676C90.7147 59.3402 90.7555 59.4386 90.7555 59.5412C90.7555 59.6438 90.7147 59.7422 90.6421 59.8148C90.5696 59.8873 90.4712 59.9281 90.3686 59.9281Z" fill="#093F68"/>
<path d="M85.8016 44.785H3.87909C3.77648 44.785 3.67807 44.7443 3.60551 44.6717C3.53295 44.5992 3.49219 44.5007 3.49219 44.3981C3.49219 44.2955 3.53295 44.1971 3.60551 44.1246C3.67807 44.052 3.77648 44.0112 3.87909 44.0112H85.8016C85.9042 44.0112 86.0026 44.052 86.0752 44.1246C86.1477 44.1971 86.1885 44.2955 86.1885 44.3981C86.1885 44.5007 86.1477 44.5992 86.0752 44.6717C86.0026 44.7443 85.9042 44.785 85.8016 44.785Z" fill="#DFEAEF"/>
<path d="M85.8016 26.0472H3.87909C3.77648 26.0472 3.67807 26.0065 3.60551 25.9339C3.53295 25.8614 3.49219 25.763 3.49219 25.6603C3.49219 25.5577 3.53295 25.4593 3.60551 25.3868C3.67807 25.3142 3.77648 25.2734 3.87909 25.2734H85.8016C85.9042 25.2734 86.0026 25.3142 86.0752 25.3868C86.1477 25.4593 86.1885 25.5577 86.1885 25.6603C86.1885 25.763 86.1477 25.8614 86.0752 25.9339C86.0026 26.0065 85.9042 26.0472 85.8016 26.0472Z" fill="#DFEAEF"/>
<path d="M85.8016 10.9003H3.87909C3.77648 10.9003 3.67807 10.8595 3.60551 10.7869C3.53295 10.7144 3.49219 10.616 3.49219 10.5134C3.49219 10.4108 3.53295 10.3123 3.60551 10.2398C3.67807 10.1672 3.77648 10.1265 3.87909 10.1265H85.8016C85.9042 10.1265 86.0026 10.1672 86.0752 10.2398C86.1477 10.3123 86.1885 10.4108 86.1885 10.5134C86.1885 10.616 86.1477 10.7144 86.0752 10.7869C86.0026 10.8595 85.9042 10.9003 85.8016 10.9003Z" fill="#DFEAEF"/>
<path d="M57.2227 57.5371V62.8183C57.2227 65.1668 61.1497 67.0742 65.9937 67.0742C70.8377 67.0742 74.7648 65.1707 74.7648 62.8183V57.5371H57.2227Z" fill="#FFBC0E"/>
<path d="M65.9939 67.4574C60.8597 67.4574 56.8359 65.4185 56.8359 62.8146V57.5373C56.8359 57.4347 56.8767 57.3363 56.9493 57.2637C57.0218 57.1912 57.1202 57.1504 57.2228 57.1504H74.7649C74.8676 57.1504 74.966 57.1912 75.0385 57.2637C75.1111 57.3363 75.1518 57.4347 75.1518 57.5373V62.8185C75.1518 65.4185 71.1281 67.4574 65.9939 67.4574ZM57.6097 57.9242V62.8185C57.6097 64.9116 61.4517 66.6875 65.9939 66.6875C70.5361 66.6875 74.378 64.9155 74.378 62.8185V57.9242H57.6097Z" fill="#093F68"/>
<path d="M65.9937 61.7854C70.8378 61.7854 74.7648 59.8834 74.7648 57.5372C74.7648 55.191 70.8378 53.2891 65.9937 53.2891C61.1496 53.2891 57.2227 55.191 57.2227 57.5372C57.2227 59.8834 61.1496 61.7854 65.9937 61.7854Z" fill="#FFBC0E"/>
<path d="M65.9939 62.1724C60.8597 62.1724 56.8359 60.1372 56.8359 57.5295C56.8359 54.9218 60.8597 52.8867 65.9939 52.8867C71.1281 52.8867 75.1518 54.9218 75.1518 57.5295C75.1518 60.1372 71.1281 62.1724 65.9939 62.1724ZM65.9939 53.6605C61.4517 53.6605 57.6097 55.4287 57.6097 57.5295C57.6097 59.6304 61.4517 61.3985 65.9939 61.3985C70.5361 61.3985 74.378 59.6304 74.378 57.5295C74.378 55.4287 70.5361 53.676 65.9939 53.676V53.6605Z" fill="#093F68"/>
<path d="M57.2227 52.2983V57.5834C57.2227 59.928 61.1497 61.8393 65.9937 61.8393C70.8377 61.8393 74.7648 59.9358 74.7648 57.5834V52.2983H57.2227Z" fill="#FFBC0E"/>
<path d="M65.9939 62.2264C60.8597 62.2264 56.8359 60.1913 56.8359 57.5836V52.2985C56.8359 52.1959 56.8767 52.0975 56.9493 52.0249C57.0218 51.9524 57.1202 51.9116 57.2228 51.9116H74.7649C74.8676 51.9116 74.966 51.9524 75.0385 52.0249C75.1111 52.0975 75.1518 52.1959 75.1518 52.2985V57.5836C75.1518 60.1913 71.1281 62.2264 65.9939 62.2264ZM57.6097 52.6854V57.5836C57.6097 59.6767 61.4517 61.4526 65.9939 61.4526C70.5361 61.4526 74.378 59.6845 74.378 57.5836V52.6854H57.6097Z" fill="#093F68"/>
<path d="M65.9937 56.5545C70.8378 56.5545 74.7648 54.6525 74.7648 52.3063C74.7648 49.9601 70.8378 48.0581 65.9937 48.0581C61.1496 48.0581 57.2227 49.9601 57.2227 52.3063C57.2227 54.6525 61.1496 56.5545 65.9937 56.5545Z" fill="#FFBC0E"/>
<path d="M65.9939 56.9414C60.8597 56.9414 56.8359 54.9063 56.8359 52.2986C56.8359 49.6909 60.8597 47.6558 65.9939 47.6558C71.1281 47.6558 75.1518 49.6947 75.1518 52.2986C75.1518 54.9024 71.1281 56.9414 65.9939 56.9414ZM65.9939 48.4296C61.4517 48.4296 57.6097 50.1977 57.6097 52.2986C57.6097 54.3995 61.4517 56.1676 65.9939 56.1676C70.5361 56.1676 74.378 54.3995 74.378 52.2986C74.378 50.1977 70.5361 48.4296 65.9939 48.4296Z" fill="#093F68"/>
<path d="M57.2227 47.0791V52.3642C57.2227 54.7088 61.1497 56.6201 65.9937 56.6201C70.8377 56.6201 74.7648 54.7165 74.7648 52.3642V47.0791H57.2227Z" fill="#FFBC0E"/>
<path d="M65.9939 56.9994C60.8597 56.9994 56.8359 54.9605 56.8359 52.3566V47.0793C56.8359 46.9767 56.8767 46.8783 56.9493 46.8057C57.0218 46.7331 57.1202 46.6924 57.2228 46.6924H74.7649C74.8676 46.6924 74.966 46.7331 75.0385 46.8057C75.1111 46.8783 75.1518 46.9767 75.1518 47.0793V52.3644C75.1518 54.9605 71.1281 56.9994 65.9939 56.9994ZM57.6097 47.4662V52.3644C57.6097 54.4575 61.4517 56.2334 65.9939 56.2334C70.5361 56.2334 74.378 54.4652 74.378 52.3644V47.4662H57.6097Z" fill="#093F68"/>
<path d="M65.9937 51.3274C70.8378 51.3274 74.7648 49.4254 74.7648 47.0792C74.7648 44.733 70.8378 42.8311 65.9937 42.8311C61.1496 42.8311 57.2227 44.733 57.2227 47.0792C57.2227 49.4254 61.1496 51.3274 65.9937 51.3274Z" fill="#FFBC0E"/>
<path d="M65.9939 51.7143C60.8597 51.7143 56.8359 49.6792 56.8359 47.0715C56.8359 44.4638 60.8597 42.4287 65.9939 42.4287C71.1281 42.4287 75.1518 44.4638 75.1518 47.0715C75.1518 49.6792 71.1281 51.7143 65.9939 51.7143ZM65.9939 43.2025C61.4517 43.2025 57.6097 44.9707 57.6097 47.0715C57.6097 49.1724 61.4517 50.9405 65.9939 50.9405C70.5361 50.9405 74.378 49.1724 74.378 47.0715C74.378 44.9707 70.5361 43.218 65.9939 43.218V43.2025Z" fill="#093F68"/>
<path d="M57.2227 41.8521V47.1371C57.2227 49.4817 61.1497 51.393 65.9937 51.393C70.8377 51.393 74.7648 49.4895 74.7648 47.1371V41.8521H57.2227Z" fill="#FFBC0E"/>
<path d="M65.9939 51.7685C60.8597 51.7685 56.8359 49.7334 56.8359 47.1257V41.8522C56.8359 41.7496 56.8767 41.6512 56.9493 41.5787C57.0218 41.5061 57.1202 41.4653 57.2228 41.4653H74.7649C74.8676 41.4653 74.966 41.5061 75.0385 41.5787C75.1111 41.6512 75.1518 41.7496 75.1518 41.8522V47.1373C75.1518 49.7334 71.1281 51.7685 65.9939 51.7685ZM57.6097 42.2391V47.1373C57.6097 49.2304 61.4517 51.0063 65.9939 51.0063C70.5361 51.0063 74.378 49.2382 74.378 47.1373V42.2391H57.6097Z" fill="#093F68"/>
<path d="M65.9937 46.0965C70.8378 46.0965 74.7648 44.1945 74.7648 41.8483C74.7648 39.5021 70.8378 37.6001 65.9937 37.6001C61.1496 37.6001 57.2227 39.5021 57.2227 41.8483C57.2227 44.1945 61.1496 46.0965 65.9937 46.0965Z" fill="#FFBC0E"/>
<path d="M65.9939 46.4951C60.8597 46.4951 56.8359 44.4484 56.8359 41.8523C56.8359 39.2562 60.8597 37.2095 65.9939 37.2095C71.1281 37.2095 75.1518 39.2484 75.1518 41.8523C75.1518 44.4561 71.1281 46.4951 65.9939 46.4951ZM65.9939 37.9833C61.4517 37.9833 57.6097 39.7514 57.6097 41.8523C57.6097 43.9532 61.4517 45.7213 65.9939 45.7213C70.5361 45.7213 74.378 43.9493 74.378 41.8523C74.378 39.7553 70.5361 37.9833 65.9939 37.9833Z" fill="#093F68"/>
<path d="M57.2227 36.6211V41.9062C57.2227 44.2508 61.1497 46.1621 65.9937 46.1621C70.8377 46.1621 74.7648 44.2585 74.7648 41.9062V36.6211H57.2227Z" fill="#FFBC0E"/>
<path d="M65.9939 46.5414C60.8597 46.5414 56.8359 44.5025 56.8359 41.8986V36.6213C56.8359 36.5187 56.8767 36.4203 56.9493 36.3477C57.0218 36.2751 57.1202 36.2344 57.2228 36.2344H74.7649C74.8676 36.2344 74.966 36.2751 75.0385 36.3477C75.1111 36.4203 75.1518 36.5187 75.1518 36.6213V41.9064C75.1518 44.5025 71.1281 46.5414 65.9939 46.5414ZM57.6097 37.0082V41.9064C57.6097 43.9995 61.4517 45.7754 65.9939 45.7754C70.5361 45.7754 74.378 44.0072 74.378 41.9064V37.0082H57.6097Z" fill="#093F68"/>
<path d="M65.9937 40.8694C70.8378 40.8694 74.7648 38.9674 74.7648 36.6212C74.7648 34.275 70.8378 32.373 65.9937 32.373C61.1496 32.373 57.2227 34.275 57.2227 36.6212C57.2227 38.9674 61.1496 40.8694 65.9937 40.8694Z" fill="#FFBC0E"/>
<path d="M65.9939 41.2563C60.8597 41.2563 56.8359 39.2212 56.8359 36.6135C56.8359 34.0058 60.8597 31.9707 65.9939 31.9707C71.1281 31.9707 75.1518 34.0058 75.1518 36.6135C75.1518 39.2212 71.1281 41.2563 65.9939 41.2563ZM65.9939 32.7445C61.4517 32.7445 57.6097 34.5126 57.6097 36.6135C57.6097 38.7144 61.4517 40.4825 65.9939 40.4825C70.5361 40.4825 74.378 38.7144 74.378 36.6135C74.378 34.5126 70.5361 32.76 65.9939 32.76V32.7445Z" fill="#093F68"/>
<path d="M35.7812 57.5371V62.8183C35.7812 65.1668 39.7044 67.0742 44.5484 67.0742C49.3924 67.0742 53.3195 65.1707 53.3195 62.8183V57.5371H35.7812Z" fill="#FFBC0E"/>
<path d="M44.5486 67.4574C39.4144 67.4574 35.3945 65.4185 35.3945 62.8146V57.5373C35.3945 57.4347 35.4353 57.3363 35.5079 57.2637C35.5804 57.1912 35.6788 57.1504 35.7814 57.1504H53.3197C53.4223 57.1504 53.5207 57.1912 53.5933 57.2637C53.6658 57.3363 53.7066 57.4347 53.7066 57.5373V62.8185C53.7066 65.4185 49.6828 67.4574 44.5486 67.4574ZM36.1683 57.9242V62.8185C36.1683 64.9116 40.0064 66.6875 44.5486 66.6875C49.0908 66.6875 52.9328 64.9155 52.9328 62.8185V57.9242H36.1683Z" fill="#093F68"/>
<path d="M44.5484 61.7854C49.3925 61.7854 53.3195 59.8834 53.3195 57.5372C53.3195 55.191 49.3925 53.2891 44.5484 53.2891C39.7043 53.2891 35.7773 55.191 35.7773 57.5372C35.7773 59.8834 39.7043 61.7854 44.5484 61.7854Z" fill="#FFBC0E"/>
<path d="M44.5486 62.1724C39.4144 62.1724 35.3945 60.1372 35.3945 57.5295C35.3945 54.9218 39.4144 52.8867 44.5486 52.8867C49.6828 52.8867 53.7066 54.9218 53.7066 57.5295C53.7066 60.1372 49.6828 62.1724 44.5486 62.1724ZM44.5486 53.6605C40.0064 53.6605 36.1683 55.4287 36.1683 57.5295C36.1683 59.6304 40.0064 61.3985 44.5486 61.3985C49.0908 61.3985 52.9328 59.6304 52.9328 57.5295C52.9328 55.4287 49.0986 53.676 44.5486 53.676V53.6605Z" fill="#093F68"/>
<path d="M35.7812 52.2983V57.5834C35.7812 59.928 39.7044 61.8393 44.5484 61.8393C49.3924 61.8393 53.3195 59.9358 53.3195 57.5834V52.2983H35.7812Z" fill="#FFBC0E"/>
<path d="M44.5486 62.2264C39.4144 62.2264 35.3945 60.1913 35.3945 57.5836V52.2985C35.3945 52.1959 35.4353 52.0975 35.5079 52.0249C35.5804 51.9524 35.6788 51.9116 35.7814 51.9116H53.3197C53.4223 51.9116 53.5207 51.9524 53.5933 52.0249C53.6658 52.0975 53.7066 52.1959 53.7066 52.2985V57.5836C53.7066 60.1913 49.6828 62.2264 44.5486 62.2264ZM36.1683 52.6854V57.5836C36.1683 59.6767 40.0064 61.4526 44.5486 61.4526C49.0908 61.4526 52.9328 59.6845 52.9328 57.5836V52.6854H36.1683Z" fill="#093F68"/>
<path d="M44.5484 56.5545C49.3925 56.5545 53.3195 54.6525 53.3195 52.3063C53.3195 49.9601 49.3925 48.0581 44.5484 48.0581C39.7043 48.0581 35.7773 49.9601 35.7773 52.3063C35.7773 54.6525 39.7043 56.5545 44.5484 56.5545Z" fill="#FFBC0E"/>
<path d="M44.5486 56.9414C39.4144 56.9414 35.3945 54.9063 35.3945 52.2986C35.3945 49.6909 39.4144 47.6558 44.5486 47.6558C49.6828 47.6558 53.7066 49.6947 53.7066 52.2986C53.7066 54.9024 49.6828 56.9414 44.5486 56.9414ZM44.5486 48.4296C40.0064 48.4296 36.1683 50.1977 36.1683 52.2986C36.1683 54.3995 40.0064 56.1676 44.5486 56.1676C49.0908 56.1676 52.9328 54.3995 52.9328 52.2986C52.9328 50.1977 49.0986 48.4296 44.5486 48.4296Z" fill="#093F68"/>
<path d="M35.7812 47.0791V52.3642C35.7812 54.7088 39.7044 56.6201 44.5484 56.6201C49.3924 56.6201 53.3195 54.7165 53.3195 52.3642V47.0791H35.7812Z" fill="#FFBC0E"/>
<path d="M44.5486 56.9994C39.4144 56.9994 35.3945 54.9605 35.3945 52.3566V47.0793C35.3945 46.9767 35.4353 46.8783 35.5079 46.8057C35.5804 46.7331 35.6788 46.6924 35.7814 46.6924H53.3197C53.4223 46.6924 53.5207 46.7331 53.5933 46.8057C53.6658 46.8783 53.7066 46.9767 53.7066 47.0793V52.3644C53.7066 54.9605 49.6828 56.9994 44.5486 56.9994ZM36.1683 47.4662V52.3644C36.1683 54.4575 40.0064 56.2334 44.5486 56.2334C49.0908 56.2334 52.9328 54.4652 52.9328 52.3644V47.4662H36.1683Z" fill="#093F68"/>
<path d="M44.5484 51.3274C49.3925 51.3274 53.3195 49.4254 53.3195 47.0792C53.3195 44.733 49.3925 42.8311 44.5484 42.8311C39.7043 42.8311 35.7773 44.733 35.7773 47.0792C35.7773 49.4254 39.7043 51.3274 44.5484 51.3274Z" fill="#FFBC0E"/>
<path d="M44.5486 51.7143C39.4144 51.7143 35.3945 49.6792 35.3945 47.0715C35.3945 44.4638 39.4144 42.4287 44.5486 42.4287C49.6828 42.4287 53.7066 44.4638 53.7066 47.0715C53.7066 49.6792 49.6828 51.7143 44.5486 51.7143ZM44.5486 43.2025C40.0064 43.2025 36.1683 44.9707 36.1683 47.0715C36.1683 49.1724 40.0064 50.9405 44.5486 50.9405C49.0908 50.9405 52.9328 49.1724 52.9328 47.0715C52.9328 44.9707 49.0986 43.218 44.5486 43.218V43.2025Z" fill="#093F68"/>
<path d="M14.3359 57.5371V62.8183C14.3359 65.1668 18.263 67.0742 23.1031 67.0742C27.9433 67.0742 31.8742 65.1707 31.8742 62.8183V57.5371H14.3359Z" fill="#FFBC0E"/>
<path d="M23.1013 67.4574C17.9672 67.4574 13.9473 65.4185 13.9473 62.8146V57.5373C13.9473 57.4347 13.988 57.3363 14.0606 57.2637C14.1331 57.1912 14.2316 57.1504 14.3342 57.1504H31.8724C31.975 57.1504 32.0734 57.1912 32.146 57.2637C32.2185 57.3363 32.2593 57.4347 32.2593 57.5373V62.8185C32.2593 65.4185 28.2355 67.4574 23.1013 67.4574ZM14.7211 57.9242V62.8185C14.7211 64.9116 18.5591 66.6875 23.1013 66.6875C27.6436 66.6875 31.4855 64.9155 31.4855 62.8185V57.9242H14.7211Z" fill="#093F68"/>
<path d="M23.1011 61.7854C27.9453 61.7854 31.8722 59.8834 31.8722 57.5372C31.8722 55.191 27.9453 53.2891 23.1011 53.2891C18.257 53.2891 14.3301 55.191 14.3301 57.5372C14.3301 59.8834 18.257 61.7854 23.1011 61.7854Z" fill="#FFBC0E"/>
<path d="M23.1013 62.1724C17.9672 62.1724 13.9473 60.1372 13.9473 57.5295C13.9473 54.9218 17.9672 52.8867 23.1013 52.8867C28.2355 52.8867 32.2593 54.9218 32.2593 57.5295C32.2593 60.1372 28.2355 62.1724 23.1013 62.1724ZM23.1013 53.6605C18.5591 53.6605 14.7211 55.4287 14.7211 57.5295C14.7211 59.6304 18.5591 61.3985 23.1013 61.3985C27.6436 61.3985 31.4855 59.6304 31.4855 57.5295C31.4855 55.4287 27.6474 53.676 23.1013 53.676V53.6605Z" fill="#093F68"/>
<path d="M78.7704 2.24916C78.7667 2.14525 78.755 2.04178 78.7356 1.93964V1.8816C78.711 1.77999 78.6786 1.68039 78.6389 1.58369C78.6302 1.55979 78.6198 1.53652 78.6079 1.51405C78.5644 1.41889 78.514 1.32707 78.457 1.23935L78.4222 1.19679C78.3599 1.10722 78.2886 1.02425 78.2094 0.94917C78.1288 0.874887 78.0421 0.807583 77.9502 0.747983L77.896 0.71316C77.8054 0.659807 77.711 0.613251 77.6136 0.573875L77.5439 0.546792C77.4448 0.510262 77.3425 0.483061 77.2383 0.465543H77.1996C77.0999 0.449259 76.9988 0.44278 76.8978 0.446199H76.8475C76.7663 0.446199 76.6811 0.446199 76.5999 0.469413L64.0449 2.53547C63.7894 2.56627 63.5427 2.64849 63.3197 2.77717C63.0968 2.90585 62.9022 3.07832 62.7477 3.2842C62.5931 3.49009 62.4819 3.72511 62.4206 3.97513C62.3593 4.22515 62.3493 4.48499 62.3911 4.73899C62.4329 4.99299 62.5257 5.2359 62.6639 5.45309C62.8021 5.67028 62.9828 5.85725 63.1952 6.00274C63.4075 6.14823 63.6471 6.24923 63.8996 6.29965C64.152 6.35008 64.412 6.34889 64.664 6.29615L71.5392 5.09675L44.2162 33.6888L31.4098 25.4748C31.0611 25.2519 30.6493 25.1487 30.2367 25.1808C29.8241 25.2129 29.4332 25.3786 29.1232 25.6528L11.5695 41.1753C11.1909 41.5098 10.9606 41.9811 10.9294 42.4853C10.8982 42.9896 11.0686 43.4856 11.4031 43.8643C11.7377 44.2429 12.2089 44.4732 12.7132 44.5044C13.2174 44.5356 13.7135 44.3652 14.0921 44.0306L30.578 29.4715L43.4927 37.7551C43.8647 37.9944 44.3083 38.0966 44.7475 38.0444C45.1866 37.9922 45.5938 37.7886 45.8993 37.4688L74.4178 7.62322L73.76 14.1735C73.7092 14.6757 73.8601 15.1776 74.1793 15.5687C74.4986 15.9598 74.9601 16.2081 75.4624 16.2589H75.6559C76.1281 16.2582 76.5833 16.0821 76.9329 15.7646C77.2826 15.4471 77.5017 15.011 77.5478 14.541L78.7588 2.4813C78.7668 2.40418 78.7706 2.32669 78.7704 2.24916Z" fill="#68E1FD"/>
<path d="M12.8233 44.8932C12.3576 44.8943 11.9026 44.7535 11.519 44.4894C11.1354 44.2253 10.8414 43.8506 10.6763 43.4151C10.5111 42.9797 10.4826 42.5043 10.5945 42.0522C10.7064 41.6001 10.9535 41.1929 11.3028 40.8849L28.8759 25.3586C29.2499 25.0292 29.7208 24.8304 30.2177 24.792C30.7146 24.7536 31.2105 24.8778 31.6306 25.1458L44.1701 33.1894L70.4794 5.66141L64.6759 6.61705C64.3781 6.66448 64.0739 6.65275 63.7807 6.58254C63.4875 6.51233 63.211 6.385 62.967 6.20786C62.723 6.03071 62.5163 5.8072 62.3588 5.55013C62.2012 5.29305 62.0959 5.00744 62.0488 4.70963C61.9515 4.11054 62.0956 3.49731 62.4495 3.00421C62.8033 2.51111 63.3382 2.17832 63.9369 2.0787L76.4918 0.0281224C76.5913 0.00950962 76.6924 0.000440879 76.7936 0.00103942H76.8478C76.9773 -0.00326563 77.107 0.00581001 77.2347 0.0281224H77.2772C77.4086 0.0514762 77.538 0.0851104 77.6641 0.128716L77.7454 0.159669C77.8629 0.20651 77.9767 0.262121 78.0859 0.326035L78.1362 0.360856C78.2523 0.435742 78.3623 0.519844 78.465 0.612344C78.4811 0.624519 78.4954 0.638836 78.5076 0.654901C78.5946 0.742803 78.6748 0.837225 78.7475 0.93734L78.7862 0.991506C78.8589 1.09604 78.9211 1.20749 78.9719 1.32424L79.0106 1.40549C79.0561 1.52142 79.0936 1.64035 79.1228 1.76144V1.82334C79.1489 1.9508 79.1645 2.08022 79.1692 2.21025V2.23733V2.51203L77.9582 14.5717C77.8976 15.1766 77.5993 15.7327 77.1287 16.1176C76.6582 16.5026 76.054 16.6848 75.4491 16.6243C74.8442 16.5637 74.2881 16.2654 73.9032 15.7948C73.5183 15.3243 73.3361 14.7201 73.3966 14.1152L73.9421 8.69858L46.2013 37.7162C45.8336 38.0999 45.3442 38.3443 44.8166 38.4078C44.2889 38.4713 43.7555 38.3499 43.3073 38.0644L30.6363 29.9395L14.3632 44.3206C13.9384 44.6953 13.3898 44.8993 12.8233 44.8932ZM30.3964 25.5481C30.0249 25.5489 29.6667 25.6866 29.3905 25.935L11.8174 41.4653C11.5862 41.6692 11.4226 41.9387 11.3484 42.238C11.2743 42.5372 11.2931 42.852 11.4024 43.1403C11.5116 43.4286 11.7061 43.6767 11.96 43.8516C12.2139 44.0266 12.515 44.12 12.8233 44.1194C13.1937 44.1188 13.5507 43.981 13.8254 43.7325L30.3229 29.1579C30.386 29.1025 30.4654 29.0691 30.5492 29.0629C30.633 29.0566 30.7165 29.0777 30.7872 29.1231L43.7019 37.4067C44.0017 37.596 44.3575 37.6766 44.7096 37.6351C45.0617 37.5935 45.3889 37.4323 45.6364 37.1784L74.1511 7.33282C74.2066 7.2745 74.2789 7.23495 74.358 7.21969C74.437 7.20444 74.5189 7.21423 74.5921 7.2477C74.665 7.28102 74.7257 7.33614 74.7659 7.40544C74.8061 7.47474 74.8238 7.55482 74.8165 7.6346L74.1588 14.1848C74.1217 14.5859 74.2425 14.9857 74.4954 15.2991C74.6854 15.5321 74.9403 15.7034 75.2278 15.7912C75.5153 15.879 75.8224 15.8795 76.1102 15.7924C76.3979 15.7053 76.6533 15.5347 76.8438 15.3022C77.0344 15.0697 77.1516 14.7858 77.1805 14.4866L78.3915 2.42691C78.3915 2.37274 78.3915 2.31471 78.3915 2.25668C78.3898 2.24642 78.3898 2.23597 78.3915 2.22572C78.3904 2.14507 78.3813 2.06472 78.3644 1.98584L78.732 1.8543L78.3451 1.93555C78.3282 1.85469 78.3036 1.77565 78.2716 1.69954L78.2484 1.64537C78.2113 1.56959 78.1699 1.49597 78.1245 1.42484L78.0975 1.39001C78.0481 1.31825 77.991 1.25209 77.9272 1.1927H77.9079C77.8446 1.13361 77.7759 1.08051 77.7028 1.03407L77.8615 0.674247L77.6603 1.00311C77.5879 0.961106 77.5129 0.923634 77.4359 0.890911H77.3894C77.3074 0.861691 77.2233 0.838417 77.138 0.821268C77.0479 0.81271 76.9572 0.81271 76.8671 0.821268H76.8246C76.7585 0.823878 76.6926 0.830338 76.6272 0.840615L64.0723 2.90667C63.8561 2.91401 63.644 2.9675 63.4502 3.06357C63.2564 3.15963 63.0854 3.29604 62.9486 3.46363C62.8119 3.63123 62.7126 3.82614 62.6573 4.03528C62.6021 4.24443 62.5923 4.46296 62.6285 4.67621C62.6647 4.88947 62.7461 5.09252 62.8672 5.27174C62.9883 5.45095 63.1464 5.60218 63.3307 5.71528C63.5151 5.82837 63.7216 5.90072 63.9362 5.92746C64.1509 5.95421 64.3688 5.93473 64.5753 5.87033L71.5085 4.70963C71.5886 4.69675 71.6707 4.70937 71.7433 4.7457C71.8158 4.78204 71.8751 4.84024 71.9127 4.9121C71.9503 4.98395 71.9644 5.06582 71.953 5.14613C71.9416 5.22643 71.9052 5.30112 71.849 5.35962L44.5299 33.9555C44.4677 34.021 44.3845 34.0627 44.2947 34.0733C44.205 34.0839 44.1143 34.0628 44.0385 34.0135L31.2321 25.7958C30.9825 25.6373 30.692 25.5553 30.3964 25.5597V25.5481Z" fill="#093F68"/>
</svg>
