<svg width="25" height="27" viewBox="0 0 25 27" fill="none" xmlns="http://www.w3.org/2000/svg">
<path d="M17.1055 2.75125C15.9361 1.55674 14.3027 0.898926 12.4999 0.898926C10.6874 0.898926 9.04866 1.55276 7.88463 2.73988C6.70798 3.94009 6.13468 5.57125 6.26929 7.33261C6.53611 10.8076 9.3311 13.6344 12.4999 13.6344C15.6687 13.6344 18.4589 10.8081 18.7299 7.33375C18.8663 5.58831 18.2894 3.96056 17.1055 2.75125Z" fill="#8C8C8C"/>
<path d="M23.0766 26.3697H1.92337C1.64649 26.3731 1.37229 26.3181 1.12072 26.2086C0.869155 26.0992 0.646542 25.938 0.469081 25.7369C0.0784666 25.2952 -0.078981 24.6919 0.0376023 24.0819C0.5448 21.42 2.12769 19.1839 4.6156 17.6141C6.82588 16.2206 9.62568 15.4536 12.5 15.4536C15.3743 15.4536 18.1741 16.2212 20.3844 17.6141C22.8723 19.1833 24.4552 21.4194 24.9624 24.0813C25.079 24.6914 24.9215 25.2946 24.5309 25.7364C24.3535 25.9376 24.1309 26.0988 23.8794 26.2084C23.6278 26.3179 23.3536 26.3731 23.0766 26.3697Z" fill="#8C8C8C"/>
</svg>
