<svg width="37" height="28" viewBox="0 0 37 28" fill="none" xmlns="http://www.w3.org/2000/svg">
<path d="M18.0526 12.6675C19.2427 12.6675 20.4061 12.3973 21.3957 11.8909C22.3852 11.3846 23.1565 10.665 23.612 9.82297C24.0674 8.98098 24.1866 8.05448 23.9544 7.16063C23.7222 6.26678 23.1491 5.44572 22.3075 4.80129C21.466 4.15686 20.3938 3.718 19.2265 3.5402C18.0593 3.3624 16.8494 3.45366 15.7498 3.80242C14.6503 4.15118 13.7105 4.74179 13.0493 5.49956C12.3881 6.25733 12.0352 7.14823 12.0352 8.05959C12.0352 9.28169 12.6691 10.4537 13.7976 11.3179C14.9261 12.182 16.4567 12.6675 18.0526 12.6675ZM18.0526 5.75563C18.6476 5.75563 19.2294 5.89075 19.7241 6.14391C20.2189 6.39708 20.6045 6.75691 20.8323 7.1779C21.06 7.5989 21.1196 8.06215 21.0035 8.50907C20.8874 8.956 20.6008 9.36652 20.1801 9.68874C19.7593 10.011 19.2232 10.2304 18.6396 10.3193C18.0559 10.4082 17.451 10.3626 16.9012 10.1882C16.3514 10.0138 15.8815 9.71849 15.5509 9.3396C15.2203 8.96072 15.0439 8.51527 15.0439 8.05959C15.0439 7.44854 15.3609 6.86252 15.9251 6.43044C16.4893 5.99836 17.2546 5.75563 18.0526 5.75563Z" fill="#3B3B3B"/>
<path d="M18.0525 14.9761C15.2596 14.9761 12.5811 15.8257 10.6063 17.3379C8.63143 18.8502 7.52197 20.9013 7.52197 23.0399C7.52197 23.3455 7.68047 23.6385 7.96259 23.8545C8.24471 24.0706 8.62735 24.1919 9.02633 24.1919C9.42531 24.1919 9.80795 24.0706 10.0901 23.8545C10.3722 23.6385 10.5307 23.3455 10.5307 23.0399C10.5307 21.5123 11.3232 20.0473 12.7338 18.9671C14.1444 17.8869 16.0576 17.28 18.0525 17.28C20.0474 17.28 21.9606 17.8869 23.3712 18.9671C24.7818 20.0473 25.5742 21.5123 25.5742 23.0399C25.5742 23.3455 25.7327 23.6385 26.0149 23.8545C26.297 24.0706 26.6796 24.1919 27.0786 24.1919C27.4776 24.1919 27.8602 24.0706 28.1423 23.8545C28.4245 23.6385 28.583 23.3455 28.583 23.0399C28.583 20.9013 27.4735 18.8502 25.4986 17.3379C23.5238 15.8257 20.8453 14.9761 18.0525 14.9761Z" fill="#3B3B3B"/>
</svg>
