<svg width="45" height="39" viewBox="0 0 45 39" fill="none" xmlns="http://www.w3.org/2000/svg">
<ellipse cx="22.5" cy="19.5" rx="22.5" ry="19.5" fill="#D9D9D9"/>
<path d="M11.1289 12.757V26.2435C11.1289 27.4852 11.6463 28.589 12.4742 29.4513C13.3021 30.2791 14.3715 30.7275 15.6133 30.7275H22.3744V27.9336H15.6133C14.6819 27.9336 13.9575 27.1748 13.9575 26.2435V12.757C13.9575 11.8257 14.6819 11.1013 15.6133 11.1013H22.3744V8.27295H15.6133C14.3715 8.27295 13.3021 8.75584 12.4742 9.58366C11.6463 10.446 11.1289 11.5152 11.1289 12.757ZM18.5454 16.8271V22.2079C18.5454 22.8287 19.0974 23.3461 19.7183 23.3461H25.962V27.5887C25.962 27.9681 26.1689 28.2785 26.5139 28.451C26.6519 28.4855 26.7899 28.4855 26.8589 28.4855C27.1003 28.4855 27.3073 28.4165 27.4798 28.244L35.5862 20.1383C35.9657 19.8279 35.9312 19.207 35.5862 18.8621L27.4798 10.7909C26.9968 10.2735 25.962 10.5839 25.962 11.4118V15.6888H19.7183C19.0974 15.6888 18.5454 16.2062 18.5454 16.8271Z" fill="#3B3B3B" fill-opacity="0.8"/>
</svg>