<?xml version="1.0" standalone="no"?>
<!DOCTYPE svg PUBLIC "-//W3C//DTD SVG 20010904//EN"
 "http://www.w3.org/TR/2001/REC-SVG-20010904/DTD/svg10.dtd">
<svg version="1.0" xmlns="http://www.w3.org/2000/svg"
 width="1000.000000pt" height="1080.000000pt" viewBox="0 0 1000.000000 1080.000000"
 preserveAspectRatio="xMidYMid meet">

<g transform="translate(0.000000,1080.000000) scale(0.100000,-0.100000)"
fill="#000000" stroke="none">
<path d="M5765 8400 c-115 -20 -250 -87 -344 -169 -57 -49 -112 -115 -315
-376 -30 -38 -89 -115 -132 -170 -43 -55 -102 -131 -132 -170 -148 -193 -200
-260 -293 -380 -55 -71 -126 -164 -157 -205 -31 -41 -84 -109 -117 -151 -33
-41 -94 -119 -135 -174 -41 -54 -103 -133 -137 -176 -34 -42 -75 -95 -90 -117
-15 -21 -61 -81 -101 -133 -40 -52 -106 -136 -145 -187 -40 -51 -99 -128 -132
-170 -111 -141 -182 -237 -198 -269 -12 -22 -17 -58 -17 -110 0 -43 -5 -136
-11 -208 -9 -121 -19 -301 -53 -960 -8 -143 -12 -273 -9 -288 9 -43 78 -97
124 -97 21 0 40 4 44 9 3 5 20 13 37 17 18 3 39 10 48 15 8 5 60 27 115 49 55
22 113 47 128 55 16 8 33 15 39 15 5 0 24 6 41 14 18 8 61 27 97 41 36 14 79
32 95 39 17 8 71 30 120 49 50 19 104 42 120 51 17 9 36 16 43 16 8 0 26 6 40
13 15 8 42 21 60 30 19 9 38 17 44 17 5 0 24 6 41 14 18 8 77 33 132 56 55 22
117 48 139 57 26 12 56 40 95 91 31 40 83 109 116 152 84 110 170 220 240 309
33 42 71 92 85 111 13 19 51 69 85 111 33 42 101 128 150 192 50 65 123 158
163 209 40 50 78 100 84 111 6 12 34 48 62 81 28 34 77 95 108 136 115 152
180 236 211 274 18 21 61 78 97 125 36 48 82 107 103 132 20 24 54 67 75 96
38 53 153 202 257 335 122 155 156 213 194 326 40 119 43 380 5 454 -8 15 -14
33 -14 41 0 42 -65 155 -147 253 -88 107 -480 384 -542 384 -10 0 -21 4 -26 9
-26 26 -286 40 -390 21z m361 -294 c40 -19 109 -63 155 -98 46 -35 96 -71 110
-80 15 -9 60 -50 101 -90 138 -135 199 -326 151 -472 -38 -117 -71 -173 -176
-303 l-59 -72 -26 16 c-15 9 -40 29 -57 43 -30 26 -139 111 -181 140 -12 8
-56 42 -99 75 -43 33 -90 69 -105 80 -16 11 -108 81 -205 155 -98 74 -209 159
-249 188 -111 84 -108 79 -88 111 9 14 23 32 30 40 7 7 39 48 72 91 64 84 123
133 211 175 76 35 135 45 249 39 81 -4 105 -9 166 -38z m-832 -604 c25 -20 92
-72 148 -114 121 -92 338 -255 389 -295 21 -15 57 -43 80 -61 24 -18 97 -73
161 -122 64 -50 121 -90 126 -90 5 0 17 -11 26 -24 14 -23 14 -27 -10 -63 -14
-21 -38 -51 -54 -68 -15 -16 -47 -57 -71 -90 -24 -33 -73 -97 -109 -141 -36
-45 -80 -101 -97 -125 -18 -24 -80 -105 -138 -179 -103 -132 -198 -254 -290
-375 -25 -33 -79 -103 -120 -155 -104 -132 -226 -290 -315 -406 -41 -54 -104
-134 -139 -178 -36 -45 -81 -104 -100 -132 -20 -28 -52 -69 -72 -92 l-36 -42
-74 55 c-41 29 -97 72 -125 95 -27 22 -63 49 -80 60 -16 10 -94 68 -174 129
-200 151 -199 150 -350 264 -75 56 -154 115 -178 131 -23 16 -42 35 -42 43 0
9 19 38 43 66 23 27 65 81 92 118 28 37 102 134 165 215 63 80 129 165 145
189 17 23 55 73 86 111 31 38 70 87 85 110 16 22 57 76 92 120 158 199 189
239 217 278 17 24 57 77 90 118 33 42 101 128 150 193 50 64 124 161 165 214
41 53 80 103 85 112 6 9 41 55 79 102 77 96 71 95 150 29z m-1637 -2319 c77
-61 130 -101 273 -207 63 -47 130 -98 149 -113 19 -16 44 -35 57 -43 12 -8 37
-27 56 -41 18 -14 77 -59 131 -99 54 -40 94 -77 90 -81 -4 -4 -53 -26 -108
-49 -55 -22 -109 -45 -120 -50 -27 -12 -107 -45 -305 -124 -91 -37 -174 -71
-185 -76 -42 -20 -170 -69 -173 -65 -4 4 17 433 28 570 5 61 9 178 9 261 1 83
4 154 8 157 13 14 31 6 90 -40z"/>
<path d="M2475 3442 c-55 -18 -95 -71 -95 -125 0 -51 26 -95 72 -118 36 -19
99 -19 2548 -19 2725 0 2535 -4 2589 54 16 17 25 41 29 75 4 47 2 52 -36 93
l-41 43 -2523 2 c-1388 0 -2532 -2 -2543 -5z"/>
</g>
</svg>
