<svg width="40" height="40" viewBox="0 0 40 40" fill="none" xmlns="http://www.w3.org/2000/svg">
<mask id="mask0_798_2" style="mask-type:luminance" maskUnits="userSpaceOnUse" x="0" y="0" width="40" height="40">
<path d="M0.660156 0.877441H39.321V39.4693H0.660156V0.877441Z" fill="white"/>
</mask>
<g mask="url(#mask0_798_2)">
<path d="M2.04102 31.2L8.78934 36.8134C9.7819 37.6393 11.0331 38.0914 12.3251 38.0914H30.1162C31.3871 38.0914 32.4174 37.0629 32.4174 35.7943C32.4174 33.2569 30.3567 31.2 27.8149 31.2H15.4461" stroke="black" stroke-width="1.97248" stroke-linecap="round" stroke-linejoin="round"/>
<path d="M10.3255 28.4432L12.3966 30.5106C13.5404 31.6524 15.395 31.6524 16.5388 30.5106C17.6827 29.3688 17.6827 27.5175 16.5388 26.3757L13.3239 23.1665C12.2881 22.1326 10.8833 21.5518 9.41852 21.5518H2.04102" stroke="black" stroke-width="1.97248" stroke-linecap="round" stroke-linejoin="round"/>
</g>
<mask id="path-4-inside-1_798_2" fill="white">
<path d="M36.9316 14.5592C36.7524 14.3556 36.6536 14.0939 36.6536 13.8228C36.6536 13.5518 36.7524 13.2901 36.9316 13.0865L38.3623 11.4798C38.52 11.3042 38.6179 11.0833 38.642 10.8488C38.6661 10.6143 38.6151 10.3782 38.4965 10.1743L36.261 6.31384C36.1435 6.11024 35.9646 5.94885 35.7499 5.85269C35.5351 5.75652 35.2954 5.73048 35.065 5.77828L32.9636 6.20227C32.6962 6.25742 32.4179 6.21297 32.1811 6.0773C31.9443 5.94164 31.7654 5.72415 31.6782 5.46587L30.9964 3.42405C30.9214 3.20244 30.7786 3.00995 30.588 2.8738C30.3975 2.73766 30.1689 2.66473 29.9345 2.66534H25.4636C25.2198 2.65264 24.9786 2.71993 24.7768 2.85693C24.575 2.99393 24.4236 3.19311 24.3458 3.42405L23.7199 5.46587C23.6327 5.72415 23.4538 5.94164 23.217 6.0773C22.9802 6.21297 22.7019 6.25742 22.4345 6.20227L20.2772 5.77828C20.0588 5.74747 19.8361 5.78188 19.6372 5.87718C19.4383 5.97249 19.2721 6.12442 19.1595 6.31384L16.924 10.1743C16.8024 10.3759 16.7477 10.6107 16.7677 10.8452C16.7878 11.0796 16.8816 11.3017 17.0358 11.4798L18.4553 13.0865C18.6345 13.2901 18.7333 13.5518 18.7333 13.8228C18.7333 14.0939 18.6345 14.3556 18.4553 14.5592L17.0358 16.1659C16.8816 16.344 16.7878 16.5661 16.7677 16.8005C16.7477 17.035 16.8024 17.2698 16.924 17.4714L19.1595 21.3319C19.277 21.5355 19.4558 21.6968 19.6706 21.793C19.8853 21.8892 20.125 21.9152 20.3555 21.8674L22.4568 21.4434C22.7242 21.3883 23.0026 21.4327 23.2394 21.5684C23.4762 21.7041 23.6551 21.9216 23.7422 22.1798L24.4241 24.2217C24.5018 24.4526 24.6532 24.6518 24.855 24.7888C25.0569 24.9258 25.2981 24.9931 25.5418 24.9804H30.0128C30.2471 24.981 30.4757 24.908 30.6663 24.7719C30.8568 24.6357 30.9997 24.4433 31.0746 24.2217L31.7565 22.1798C31.8437 21.9216 32.0225 21.7041 32.2593 21.5684C32.4961 21.4327 32.7745 21.3883 33.0419 21.4434L35.1432 21.8674C35.3737 21.9152 35.6134 21.8892 35.8281 21.793C36.0429 21.6968 36.2217 21.5355 36.3392 21.3319L38.5747 17.4714C38.6934 17.2675 38.7443 17.0314 38.7202 16.7969C38.6961 16.5624 38.5982 16.3415 38.4406 16.1659L36.9316 14.5592ZM35.2662 16.0544L36.1604 17.0585L34.7297 19.5355L33.4107 19.2677C32.6057 19.1035 31.7683 19.24 31.0574 19.6513C30.3466 20.0627 29.8118 20.7202 29.5545 21.4992L29.1298 22.7489H26.2683L25.866 21.4769C25.6087 20.6979 25.0739 20.0404 24.363 19.629C23.6522 19.2176 22.8148 19.0811 22.0097 19.2454L20.6908 19.5132L19.2377 17.0474L20.1319 16.0432C20.6818 15.4295 20.9858 14.635 20.9858 13.8117C20.9858 12.9883 20.6818 12.1939 20.1319 11.5802L19.2377 10.576L20.6685 8.12136L21.9874 8.38914C22.7924 8.5534 23.6298 8.4169 24.3407 8.00554C25.0516 7.59419 25.5864 6.93661 25.8436 6.15764L26.2683 4.89684H29.1298L29.5545 6.16879C29.8118 6.94777 30.3466 7.60534 31.0574 8.0167C31.7683 8.42806 32.6057 8.56456 33.4107 8.4003L34.7297 8.13252L36.1604 10.6095L35.2662 11.6137C34.7225 12.2259 34.4223 13.0158 34.4223 13.834C34.4223 14.6522 34.7225 15.4421 35.2662 16.0544ZM27.6991 9.35984C26.8148 9.35984 25.9504 9.62159 25.2151 10.112C24.4799 10.6024 23.9068 11.2994 23.5684 12.1149C23.23 12.9304 23.1415 13.8278 23.314 14.6935C23.4865 15.5593 23.9123 16.3545 24.5376 16.9787C25.1629 17.6028 25.9595 18.0279 26.8268 18.2001C27.6941 18.3723 28.5931 18.2839 29.41 17.9461C30.227 17.6083 30.9253 17.0363 31.4165 16.3024C31.9078 15.5684 32.17 14.7055 32.17 13.8228C32.17 12.6392 31.699 11.504 30.8605 10.667C30.022 9.83005 28.8848 9.35984 27.6991 9.35984ZM27.6991 16.0544C27.2569 16.0544 26.8247 15.9235 26.4571 15.6783C26.0895 15.4331 25.8029 15.0846 25.6337 14.6768C25.4645 14.2691 25.4203 13.8204 25.5065 13.3875C25.5928 12.9546 25.8057 12.557 26.1183 12.2449C26.431 11.9329 26.8293 11.7203 27.2629 11.6342C27.6966 11.5481 28.1461 11.5923 28.5545 11.7612C28.963 11.9301 29.3122 12.2161 29.5578 12.5831C29.8034 12.9501 29.9345 13.3815 29.9345 13.8228C29.9345 14.4147 29.699 14.9823 29.2798 15.4008C28.8606 15.8192 28.2919 16.0544 27.6991 16.0544Z"/>
</mask>
<path d="M36.9316 14.5592C36.7524 14.3556 36.6536 14.0939 36.6536 13.8228C36.6536 13.5518 36.7524 13.2901 36.9316 13.0865L38.3623 11.4798C38.52 11.3042 38.6179 11.0833 38.642 10.8488C38.6661 10.6143 38.6151 10.3782 38.4965 10.1743L36.261 6.31384C36.1435 6.11024 35.9646 5.94885 35.7499 5.85269C35.5351 5.75652 35.2954 5.73048 35.065 5.77828L32.9636 6.20227C32.6962 6.25742 32.4179 6.21297 32.1811 6.0773C31.9443 5.94164 31.7654 5.72415 31.6782 5.46587L30.9964 3.42405C30.9214 3.20244 30.7786 3.00995 30.588 2.8738C30.3975 2.73766 30.1689 2.66473 29.9345 2.66534H25.4636C25.2198 2.65264 24.9786 2.71993 24.7768 2.85693C24.575 2.99393 24.4236 3.19311 24.3458 3.42405L23.7199 5.46587C23.6327 5.72415 23.4538 5.94164 23.217 6.0773C22.9802 6.21297 22.7019 6.25742 22.4345 6.20227L20.2772 5.77828C20.0588 5.74747 19.8361 5.78188 19.6372 5.87718C19.4383 5.97249 19.2721 6.12442 19.1595 6.31384L16.924 10.1743C16.8024 10.3759 16.7477 10.6107 16.7677 10.8452C16.7878 11.0796 16.8816 11.3017 17.0358 11.4798L18.4553 13.0865C18.6345 13.2901 18.7333 13.5518 18.7333 13.8228C18.7333 14.0939 18.6345 14.3556 18.4553 14.5592L17.0358 16.1659C16.8816 16.344 16.7878 16.5661 16.7677 16.8005C16.7477 17.035 16.8024 17.2698 16.924 17.4714L19.1595 21.3319C19.277 21.5355 19.4558 21.6968 19.6706 21.793C19.8853 21.8892 20.125 21.9152 20.3555 21.8674L22.4568 21.4434C22.7242 21.3883 23.0026 21.4327 23.2394 21.5684C23.4762 21.7041 23.6551 21.9216 23.7422 22.1798L24.4241 24.2217C24.5018 24.4526 24.6532 24.6518 24.855 24.7888C25.0569 24.9258 25.2981 24.9931 25.5418 24.9804H30.0128C30.2471 24.981 30.4757 24.908 30.6663 24.7719C30.8568 24.6357 30.9997 24.4433 31.0746 24.2217L31.7565 22.1798C31.8437 21.9216 32.0225 21.7041 32.2593 21.5684C32.4961 21.4327 32.7745 21.3883 33.0419 21.4434L35.1432 21.8674C35.3737 21.9152 35.6134 21.8892 35.8281 21.793C36.0429 21.6968 36.2217 21.5355 36.3392 21.3319L38.5747 17.4714C38.6934 17.2675 38.7443 17.0314 38.7202 16.7969C38.6961 16.5624 38.5982 16.3415 38.4406 16.1659L36.9316 14.5592ZM35.2662 16.0544L36.1604 17.0585L34.7297 19.5355L33.4107 19.2677C32.6057 19.1035 31.7683 19.24 31.0574 19.6513C30.3466 20.0627 29.8118 20.7202 29.5545 21.4992L29.1298 22.7489H26.2683L25.866 21.4769C25.6087 20.6979 25.0739 20.0404 24.363 19.629C23.6522 19.2176 22.8148 19.0811 22.0097 19.2454L20.6908 19.5132L19.2377 17.0474L20.1319 16.0432C20.6818 15.4295 20.9858 14.635 20.9858 13.8117C20.9858 12.9883 20.6818 12.1939 20.1319 11.5802L19.2377 10.576L20.6685 8.12136L21.9874 8.38914C22.7924 8.5534 23.6298 8.4169 24.3407 8.00554C25.0516 7.59419 25.5864 6.93661 25.8436 6.15764L26.2683 4.89684H29.1298L29.5545 6.16879C29.8118 6.94777 30.3466 7.60534 31.0574 8.0167C31.7683 8.42806 32.6057 8.56456 33.4107 8.4003L34.7297 8.13252L36.1604 10.6095L35.2662 11.6137C34.7225 12.2259 34.4223 13.0158 34.4223 13.834C34.4223 14.6522 34.7225 15.4421 35.2662 16.0544ZM27.6991 9.35984C26.8148 9.35984 25.9504 9.62159 25.2151 10.112C24.4799 10.6024 23.9068 11.2994 23.5684 12.1149C23.23 12.9304 23.1415 13.8278 23.314 14.6935C23.4865 15.5593 23.9123 16.3545 24.5376 16.9787C25.1629 17.6028 25.9595 18.0279 26.8268 18.2001C27.6941 18.3723 28.5931 18.2839 29.41 17.9461C30.227 17.6083 30.9253 17.0363 31.4165 16.3024C31.9078 15.5684 32.17 14.7055 32.17 13.8228C32.17 12.6392 31.699 11.504 30.8605 10.667C30.022 9.83005 28.8848 9.35984 27.6991 9.35984ZM27.6991 16.0544C27.2569 16.0544 26.8247 15.9235 26.4571 15.6783C26.0895 15.4331 25.8029 15.0846 25.6337 14.6768C25.4645 14.2691 25.4203 13.8204 25.5065 13.3875C25.5928 12.9546 25.8057 12.557 26.1183 12.2449C26.431 11.9329 26.8293 11.7203 27.2629 11.6342C27.6966 11.5481 28.1461 11.5923 28.5545 11.7612C28.963 11.9301 29.3122 12.2161 29.5578 12.5831C29.8034 12.9501 29.9345 13.3815 29.9345 13.8228C29.9345 14.4147 29.699 14.9823 29.2798 15.4008C28.8606 15.8192 28.2919 16.0544 27.6991 16.0544Z" fill="#7F8499" stroke="black" stroke-width="1.57798" mask="url(#path-4-inside-1_798_2)"/>
</svg>
