<svg width="39" height="35" viewBox="0 0 39 35" fill="none" xmlns="http://www.w3.org/2000/svg">
<path d="M13.7363 4.71098V1.48828C13.7363 1.13236 14.0255 0.84375 14.382 0.84375H18.2561C18.6127 0.84375 18.9018 1.13236 18.9018 1.48828V4.71098C18.9018 5.06689 18.6127 5.3555 18.2561 5.3555H14.382C14.0254 5.3555 13.7363 5.06689 13.7363 4.71098Z" fill="#7F8499"/>
<path d="M13.7363 31.1368V27.9141C13.7363 27.5581 14.0255 27.2695 14.382 27.2695H18.2561C18.6127 27.2695 18.9018 27.5581 18.9018 27.9141V31.1368C18.9018 31.4927 18.6127 31.7813 18.2561 31.7813H14.382C14.0254 31.7813 13.7363 31.4927 13.7363 31.1368Z" fill="#7F8499"/>
<path d="M27.9426 13.7344H31.171C31.5276 13.7344 31.8167 14.023 31.8167 14.3789V18.2461C31.8167 18.602 31.5276 18.8907 31.171 18.8907H27.9426C27.586 18.8907 27.2969 18.602 27.2969 18.2461V14.3789C27.2969 14.023 27.586 13.7344 27.9426 13.7344Z" fill="#7F8499"/>
<path d="M1.46989 13.7344H4.69835C5.0549 13.7344 5.34403 14.023 5.34403 14.3789V18.2461C5.34403 18.602 5.0549 18.8907 4.69835 18.8907H1.46989C1.11334 18.8907 0.824219 18.602 0.824219 18.2461V14.3789C0.824219 14.023 1.11327 13.7344 1.46989 13.7344Z" fill="#7F8499"/>
<path d="M22.7125 6.2859L24.9954 4.00712C25.2475 3.75544 25.6564 3.75544 25.9085 4.00712L28.6479 6.74162C28.9 6.99329 28.9 7.40144 28.6479 7.65312L26.365 9.93191C26.1129 10.1836 25.704 10.1836 25.4519 9.93191L22.7125 7.19741C22.4604 6.94573 22.4604 6.53758 22.7125 6.2859Z" fill="#7F8499"/>
<path d="M3.99377 24.9715L6.27663 22.6927C6.52875 22.441 6.93763 22.441 7.18976 22.6927L9.92914 25.4272C10.1813 25.6788 10.1813 26.087 9.92914 26.3387L7.64636 28.6175C7.39424 28.8692 6.98535 28.8692 6.73323 28.6175L3.99385 25.883C3.74165 25.6314 3.74165 25.2232 3.99377 24.9715Z" fill="#7F8499"/>
<path d="M7.64629 4.00712L9.92915 6.2859C10.1813 6.53758 10.1813 6.94573 9.92915 7.19741L7.18977 9.93191C6.93764 10.1836 6.52876 10.1836 6.27664 9.93191L3.99378 7.65312C3.74166 7.40144 3.74166 6.99329 3.99378 6.74162L6.73309 4.00712C6.98521 3.75544 7.39409 3.75544 7.64629 4.00712Z" fill="#7F8499"/>
<path d="M16.32 3.42188C9.18789 3.42188 3.40625 9.1932 3.40625 16.3126C3.40625 23.4319 9.18789 29.2033 16.32 29.2033C23.4521 29.2033 29.2337 23.4319 29.2337 16.3126C29.2337 9.1932 23.4521 3.42188 16.32 3.42188ZM16.32 21.4689C13.4672 21.4689 11.1545 19.1603 11.1545 16.3126C11.1545 13.4649 13.4672 11.1563 16.32 11.1563C19.1728 11.1563 21.4855 13.4649 21.4855 16.3126C21.4855 19.1603 19.1728 21.4689 16.32 21.4689Z" fill="#707487"/>
<path d="M16.3205 8.57715C12.0412 8.57715 8.57227 12.0399 8.57227 16.3116C8.57227 20.5832 12.0412 24.0461 16.3205 24.0461C20.5998 24.0461 24.0688 20.5832 24.0688 16.3116C24.0688 12.0399 20.5998 8.57715 16.3205 8.57715ZM16.3205 21.4679C13.4677 21.4679 11.155 19.1593 11.155 16.3116C11.155 13.4639 13.4677 11.1553 16.3205 11.1553C19.1733 11.1553 21.486 13.4639 21.486 16.3116C21.486 19.1593 19.1733 21.4679 16.3205 21.4679Z" fill="#5B5D6E"/>
<path d="M17.6117 34.3585H36.9822C37.6955 34.3585 38.2736 33.7815 38.2736 33.0695V17.6006C38.2736 16.8886 37.6955 16.3115 36.9822 16.3115H17.6117C16.8984 16.3115 16.3203 16.8886 16.3203 17.6006V33.0695C16.3202 33.7814 16.8984 34.3585 17.6117 34.3585Z" fill="#E4EAF8"/>
<path d="M17.6117 16.3115H36.9823C37.6956 16.3115 38.2737 16.8886 38.2737 17.6006V20.1787H16.3203V17.6006C16.3203 16.8886 16.8985 16.3115 17.6117 16.3115Z" fill="#C7CFE2"/>
<path d="M36.3364 18.8906H24.714C24.3571 18.8906 24.0684 18.602 24.0684 18.2461C24.0684 17.8902 24.3572 17.6016 24.714 17.6016H36.3364C36.6934 17.6016 36.9821 17.8902 36.9821 18.2461C36.9821 18.6021 36.6934 18.8906 36.3364 18.8906Z" fill="#E4EAF8"/>
<path d="M18.259 18.8906C18.6156 18.8906 18.9046 18.602 18.9046 18.2461C18.9046 17.8901 18.6156 17.6016 18.259 17.6016C17.9024 17.6016 17.6133 17.8901 17.6133 18.2461C17.6133 18.602 17.9024 18.8906 18.259 18.8906Z" fill="#FF5050"/>
<path d="M20.1945 18.8906C20.5511 18.8906 20.8402 18.602 20.8402 18.2461C20.8402 17.8901 20.5511 17.6016 20.1945 17.6016C19.8379 17.6016 19.5488 17.8901 19.5488 18.2461C19.5488 18.602 19.8379 18.8906 20.1945 18.8906Z" fill="#FFDC64"/>
<path d="M22.132 18.8906C22.4886 18.8906 22.7777 18.602 22.7777 18.2461C22.7777 17.8901 22.4886 17.6016 22.132 17.6016C21.7754 17.6016 21.4863 17.8901 21.4863 18.2461C21.4863 18.602 21.7754 18.8906 22.132 18.8906Z" fill="#9BF57D"/>
<path d="M13.8582 28.3521C12.3176 28.0399 10.8636 27.4369 9.53677 26.5598C9.29672 26.4011 8.978 26.4332 8.7745 26.6363L7.36996 28.0386C7.27029 28.1381 7.10825 28.1381 7.00843 28.0386L4.57334 25.608C4.47375 25.5085 4.47367 25.3465 4.57334 25.2471L5.97803 23.8448C6.18161 23.6416 6.2137 23.3235 6.05468 23.0839C5.17598 21.7596 4.57191 20.3082 4.25923 18.7702C4.20192 18.4886 3.95387 18.2862 3.66595 18.2862H1.68506C1.54416 18.2862 1.42946 18.1718 1.42946 18.031V14.5935C1.42946 14.4529 1.54416 14.3384 1.68506 14.3384H3.66618C3.9541 14.3384 4.20222 14.136 4.25945 13.8543C4.57214 12.3164 5.17628 10.8651 6.0549 9.54067C6.21392 9.30105 6.18176 8.98297 5.97834 8.77976L4.57357 7.3775C4.4739 7.27808 4.47397 7.11618 4.57357 7.01668L7.0085 4.58609C7.10817 4.48667 7.27022 4.4866 7.37004 4.58609L8.77488 5.98835C8.97838 6.19149 9.2971 6.22352 9.53707 6.06486C10.8639 5.1878 12.3178 4.58473 13.8584 4.27253C14.1406 4.21532 14.3434 3.96772 14.3434 3.68039V1.70295C14.3434 1.5623 14.4581 1.44781 14.599 1.44781H18.0425C18.1834 1.44781 18.2981 1.56223 18.2981 1.70295V3.68054C18.2981 3.96795 18.5009 4.21548 18.783 4.27268C20.3237 4.58488 21.7776 5.18788 23.1044 6.06501C23.3445 6.22367 23.6632 6.19156 23.8667 5.9885L25.2714 4.58632C25.3711 4.4869 25.5332 4.48682 25.6329 4.58632L28.068 7.01706C28.1676 7.11648 28.1677 7.27838 28.068 7.37788L26.6632 8.78014C26.4597 8.98335 26.4276 9.3015 26.5867 9.54104C27.4653 10.8654 28.0694 12.3168 28.3822 13.8547C28.4394 14.1364 28.6875 14.3388 28.9754 14.3388H30.9565C31.2909 14.3388 31.5619 14.0682 31.5619 13.7345C31.5619 13.4008 31.2909 13.1302 30.9565 13.1302H29.4608C29.133 11.7773 28.5972 10.4899 27.8628 9.29193L28.9242 8.2324C29.4958 7.66174 29.4958 6.73328 28.9242 6.16254L26.489 3.7318C25.9174 3.16114 24.9872 3.16122 24.4155 3.7318L23.3541 4.79126C22.1537 4.05817 20.864 3.52324 19.5088 3.19611V1.70295C19.5088 0.895843 18.8512 0.239258 18.0425 0.239258H14.599C13.7904 0.239258 13.1326 0.895767 13.1326 1.70295V3.19604C11.7774 3.52324 10.4877 4.05817 9.28751 4.79118L8.22608 3.73165C7.65441 3.16099 6.72421 3.16107 6.15253 3.73165L3.71745 6.16239C3.14585 6.73305 3.14585 7.66159 3.71745 8.23224L4.77888 9.29178C4.04448 10.4899 3.50859 11.7772 3.18081 13.1301H1.68506C0.876432 13.13 0.21875 13.7866 0.21875 14.5937V18.0312C0.21875 18.8382 0.876432 19.4948 1.68506 19.4948H3.18073C3.50852 20.8477 4.0444 22.135 4.7788 23.3331L3.71738 24.3926C3.14577 24.9632 3.14577 25.8918 3.71738 26.4625L6.15253 28.8932C6.72421 29.4639 7.65441 29.4638 8.22608 28.8932L9.28736 27.8338C10.4877 28.5668 11.7773 29.1017 13.1326 29.4289V30.922C13.1326 31.2557 13.4035 31.5263 13.7379 31.5263C14.0724 31.5263 14.3433 31.2558 14.3433 30.922V28.9444C14.3431 28.6569 14.1403 28.4093 13.8582 28.3521Z" fill="black"/>
<path d="M16.3197 11.7602C17.943 11.7602 19.457 12.6328 20.2705 14.0374C20.438 14.3263 20.8083 14.425 21.0976 14.2581C21.387 14.091 21.4861 13.7214 21.3187 13.4325C20.2894 11.6556 18.3738 10.5518 16.3197 10.5518C13.1376 10.5518 10.5488 13.136 10.5488 16.3123C10.5488 18.3614 11.6535 20.2729 13.4318 21.3007C13.5272 21.3559 13.6316 21.3821 13.7345 21.3821C13.9434 21.3821 14.1466 21.274 14.2589 21.0806C14.4264 20.7917 14.3277 20.4221 14.0384 20.2548C12.6327 19.4424 11.7595 17.9317 11.7595 16.3124C11.7595 13.8023 13.8052 11.7602 16.3197 11.7602Z" fill="black"/>
<path d="M36.9821 15.709H17.6115C16.5657 15.709 15.7148 16.5583 15.7148 17.6023V33.0712C15.7148 34.1152 16.5657 34.9645 17.6115 34.9645H36.9821C38.028 34.9645 38.8788 34.1152 38.8788 33.0712V17.6023C38.8788 16.5583 38.028 15.709 36.9821 15.709ZM37.6682 33.0712C37.6682 33.4488 37.3604 33.7561 36.9821 33.7561H17.6115C17.2333 33.7561 16.9255 33.4488 16.9255 33.0712V17.6023C16.9255 17.2247 17.2333 16.9175 17.6115 16.9175H36.9821C37.3604 16.9175 37.6682 17.2247 37.6682 17.6023V33.0712Z" fill="black"/>
<path d="M13.9433 23.0377C11.0939 22.0334 9.17938 19.3306 9.17938 16.3124C9.17938 12.3808 12.3837 9.18218 16.3223 9.18218C19.3436 9.18218 22.0503 11.0912 23.0578 13.9326C23.1694 14.2472 23.515 14.4121 23.8305 14.3006C24.1456 14.1893 24.3107 13.844 24.1991 13.5293C23.0208 10.2062 19.8553 7.97363 16.3223 7.97363C11.7161 7.97363 7.96875 11.7144 7.96875 16.3123C7.96875 19.842 10.2077 23.0027 13.5403 24.1772C13.607 24.2007 13.675 24.2119 13.7419 24.2119C13.9913 24.2119 14.2248 24.0568 14.3126 23.8086C14.4238 23.494 14.2586 23.1488 13.9433 23.0377Z" fill="black"/>
<path d="M35.6914 19.5752H34.4003C34.0659 19.5752 33.7949 19.8457 33.7949 20.1795C33.7949 20.5132 34.0658 20.7837 34.4003 20.7837H35.6914C36.0258 20.7837 36.2968 20.5132 36.2968 20.1795C36.2967 19.8457 36.0258 19.5752 35.6914 19.5752Z" fill="black"/>
<path d="M32.4214 20.1795C32.4214 19.8458 32.1505 19.5752 31.816 19.5752H18.9022C18.5679 19.5752 18.2969 19.8457 18.2969 20.1795C18.2969 20.5132 18.5678 20.7837 18.9022 20.7837H31.816C32.1504 20.7837 32.4214 20.5132 32.4214 20.1795Z" fill="black"/>
<path d="M32.0336 23.6194L26.0048 29.6375L22.5588 26.1975C22.3223 25.9615 21.9391 25.9615 21.7027 26.1975C21.4663 26.4335 21.4663 26.8161 21.7027 27.052L25.5768 30.9192C25.6951 31.0372 25.85 31.0962 26.0049 31.0962C26.1598 31.0962 26.3147 31.0373 26.433 30.9192L32.8898 24.4739C33.1262 24.2379 33.1262 23.8553 32.8898 23.6194C32.6533 23.3834 32.27 23.3834 32.0336 23.6194Z" fill="black"/>
</svg>
