<svg width="40" height="40" viewBox="0 0 40 40" fill="none" xmlns="http://www.w3.org/2000/svg">
<path d="M39.2824 17.5583V21.1717C39.2824 22.9784 35.5447 21.0541 33.9873 24.7935C33.69 25.4646 33.574 26.2017 33.6508 26.9315C33.7276 27.6613 33.9946 28.3583 34.425 28.9531C35.9151 30.9783 36.0245 30.2892 32.5478 33.7177C32.4077 33.857 32.2229 33.9426 32.0259 33.9595C31.8288 33.9764 31.6321 33.9235 31.4703 33.8101L30.3591 33.0202C29.7655 32.5988 29.0744 32.3347 28.3507 32.2527C27.6269 32.1707 26.8941 32.2736 26.2211 32.5516C25.548 32.8295 24.9566 33.2736 24.5025 33.8421C24.0483 34.4105 23.7462 35.0848 23.6245 35.8017L23.3972 37.1462C23.3649 37.3451 23.2622 37.5257 23.1076 37.6553C22.9531 37.7848 22.7571 37.8547 22.5554 37.8521H18.9355C17.1424 37.8521 19.0618 34.1043 15.3073 32.5665C12.6724 31.4909 12.4619 30.9614 9.01044 27.5245C8.41419 26.6749 7.91444 25.7618 7.52041 24.8019C6.02197 21.1129 2.24219 22.928 2.24219 21.1717V17.5583C2.24219 15.8777 5.51688 17.4995 7.29312 14.4239C7.60427 13.8805 7.7953 13.2769 7.85338 12.6536C7.91146 12.0304 7.83524 11.4019 7.62985 10.8105C7.09108 9.23073 5.51688 8.44083 6.38395 7.6005L8.97677 5.01231C10.2058 3.78544 11.5948 7.73496 15.2989 6.18036C19.0029 4.62576 17.1845 0.87793 18.9524 0.87793H22.5722C24.3821 0.87793 22.4459 4.60896 26.2004 6.16355C30.359 7.55008 31.3271 3.76864 32.5478 5.01231L35.0733 7.57529C36.3107 8.81057 32.3542 10.1971 33.9031 13.8861C34.1747 14.5634 34.6162 15.1595 35.1853 15.6172C35.7544 16.0749 36.4318 16.3787 37.1526 16.4995L38.5079 16.7264C38.7178 16.7432 38.9138 16.838 39.0572 16.992C39.2006 17.146 39.2809 17.3481 39.2824 17.5583Z" fill="#7C7D7D"/>
<path d="M39.2803 17.5583V21.1717C39.2803 22.9784 35.5426 21.0541 33.9852 24.7935C32.8908 27.701 34.6502 29.1211 35.3069 30.2052C33.4614 31.3017 31.4389 32.0694 29.3299 32.474C28.7409 32.2578 28.1109 32.1757 27.4861 32.2339C26.8612 32.292 26.2573 32.4889 25.7185 32.8102C20.8402 32.7859 16.1685 30.8412 12.7181 27.3986C9.26782 23.956 7.31756 19.2935 7.29102 14.4239C7.60216 13.8805 7.79319 13.2769 7.85127 12.6536C7.90935 12.0304 7.83314 11.4019 7.62774 10.8105C8.0331 8.70526 8.80221 6.68642 9.90066 4.84425C11.0624 5.54172 12.645 7.28118 15.2715 6.18036C19.0008 4.69299 17.1824 0.87793 18.9503 0.87793H22.5701C24.38 0.87793 22.4438 4.60896 26.1983 6.16355C30.3569 7.55009 31.325 3.76864 32.5457 5.01231L35.0711 7.57529C36.3086 8.81057 32.3521 10.1971 33.901 13.8861C34.1726 14.5634 34.6141 15.1595 35.1832 15.6172C35.7523 16.0749 36.4297 16.3787 37.1504 16.4995L38.5058 16.7264C38.7157 16.7432 38.9117 16.838 39.0551 16.992C39.1985 17.146 39.2788 17.3481 39.2803 17.5583Z" fill="#919191"/>
<path d="M30.8639 19.3652C30.8648 21.144 30.3943 22.8914 29.5002 24.43C28.6061 25.9687 27.3202 27.2438 25.7729 28.1262C24.2256 29.0085 22.4721 29.4666 20.6902 29.4539C18.9083 29.4413 17.1614 28.9584 15.6269 28.0542L12.0576 24.4912C11.2696 23.1556 10.8006 21.6566 10.6872 20.1107C10.5737 18.5647 10.8188 17.0135 11.4034 15.5775C11.988 14.1415 12.8964 12.8594 14.058 11.8307C15.2196 10.802 16.6031 10.0545 18.1011 9.64616C19.5991 9.23786 21.1712 9.17978 22.6953 9.47643C24.2194 9.77308 25.6545 10.4165 26.8891 11.3566C28.1237 12.2968 29.1246 13.5084 29.8139 14.8973C30.5033 16.2863 30.8626 17.8152 30.8639 19.3652Z" fill="#DAD7E5"/>
<path d="M30.8623 19.365C30.864 21.6297 30.1019 23.829 28.6988 25.6086C26.7569 27.1481 24.3156 27.9208 21.8398 27.7795C19.364 27.6383 17.0267 26.5929 15.2732 24.8425C13.5197 23.0921 12.4725 20.759 12.3309 18.2877C12.1894 15.8163 12.9635 13.3793 14.5057 11.4408C15.9956 10.2682 17.7862 9.53805 19.6724 9.33406C21.5586 9.13007 23.4643 9.46045 25.1712 10.2874C26.8781 11.1143 28.3172 12.4043 29.3237 14.0098C30.3302 15.6152 30.8634 17.4711 30.8623 19.365Z" fill="#EDEBF2"/>
<path d="M20.0379 24.9956C19.6602 24.9478 19.2766 24.9881 18.9172 25.1135C18.5578 25.2389 18.2325 25.446 17.967 25.7183L4.86823 38.7937C4.38948 39.239 3.75628 39.4814 3.10201 39.4699C2.44774 39.4584 1.8235 39.1938 1.36079 38.7319C0.898077 38.27 0.633031 37.6469 0.621487 36.9938C0.609943 36.3407 0.852803 35.7086 1.2989 35.2307L14.3977 22.1553C14.6705 21.8902 14.8778 21.5655 15.0035 21.2068C15.1291 20.8481 15.1696 20.4651 15.1216 20.0881C14.9668 19.0824 15.076 18.0538 15.4385 17.1027C15.8011 16.1517 16.4045 15.3108 17.19 14.6623C17.9754 14.0137 18.916 13.5796 19.9198 13.4024C20.9236 13.2252 21.9562 13.3109 22.9169 13.6513L19.7516 16.8445L20.7618 19.3654L23.2873 20.3738L26.4525 17.2142C26.7914 18.1702 26.8769 19.1973 26.7008 20.196C26.5247 21.1946 26.0929 22.1309 25.4475 22.9139C24.802 23.6969 23.9647 24.3 23.0169 24.6648C22.069 25.0295 21.0428 25.1435 20.0379 24.9956Z" fill="#374F68"/>
<path d="M26.7653 18.3398C26.6543 19.1096 26.3914 19.8498 25.992 20.5176C25.5925 21.1853 25.0643 21.7673 24.438 22.23C23.8117 22.6926 23.0997 23.0267 22.3432 23.2128C21.5867 23.399 20.8007 23.4336 20.0308 23.3145C19.6531 23.2667 19.2694 23.307 18.9101 23.4324C18.5507 23.5579 18.2254 23.7649 17.9599 24.0372L4.86954 37.1126C4.56783 37.4118 4.19531 37.6301 3.78651 37.7473C3.37772 37.8645 2.94591 37.8767 2.53113 37.7828C2.11635 37.689 1.73203 37.492 1.41384 37.2103C1.09564 36.9286 0.853862 36.5713 0.710938 36.1714C0.971902 35.4151 0.138498 36.3899 14.399 22.1549C15.4765 21.0624 15.0556 20.0036 15.0556 19.365C15.0277 18.4091 15.2337 17.4609 15.6557 16.6025C16.0777 15.744 16.703 15.0012 17.4775 14.4383C18.2519 13.8755 19.1521 13.5096 20.1002 13.3724C21.0482 13.2352 22.0155 13.3307 22.9182 13.6508L19.753 16.844L20.7631 19.365L23.2886 20.3734L26.4539 17.2138C26.5983 17.5767 26.7028 17.9543 26.7653 18.3398Z" fill="#425B72"/>
</svg>
